<svg viewBox="0 0 180 180" xmlns="http://www.w3.org/2000/svg" fill="none"><g transform="translate(0, 66)"><g opacity="0.9"><path fill-rule="evenodd" clip-rule="evenodd" d="M32.5 41C41.6127 41 49 32.9411 49 23C49 13.0589 41.6127 5 32.5 5C23.3873 5 16 13.0589 16 23C16 32.9411 23.3873 41 32.5 41Z" stroke="#2A3544" stroke-width="6"/><path d="M29.5152 36.7649C22.1017 41.0451 12.5101 38.3112 8.0918 30.6585" stroke="#2A3544" stroke-width="4"/><path fill-rule="evenodd" clip-rule="evenodd" d="M28 67C37.3888 67 45 60.5081 45 52.5C45 44.4919 37.3888 38 28 38C18.6112 38 12 44.4919 12 52.5C12 60.5081 18.6112 67 28 67Z" stroke="#2A3544" stroke-width="4"/><path d="M168.606 60.4234C164.326 53.0099 154.653 50.5817 147 55" stroke="#2A3544" stroke-width="4"/><path fill-rule="evenodd" clip-rule="evenodd" d="M148 38C157.389 38 165 31.0604 165 22.5C165 13.9396 157.389 7 148 7C138.611 7 132 13.9396 132 22.5C132 31.0604 138.611 38 148 38Z" stroke="#2A3544" stroke-width="6"/></g><path fill-rule="evenodd" clip-rule="evenodd" d="M145 0C143.895 0 143 0.89543 143 2V20C143 21.1046 143.895 22 145 22H157C158.105 22 159 21.1046 159 20V2C159 0.895431 158.105 0 157 0H145ZM23 27C21.8954 27 21 27.8954 21 29V47C21 48.1046 21.8954 49 23 49H35C36.1046 49 37 48.1046 37 47V29C37 27.8954 36.1046 27 35 27H23ZM24 60C22.8954 60 22 60.8954 22 62V70C22 71.1046 22.8954 72 24 72H36C37.1046 72 38 71.1046 38 70V62C38 60.8954 37.1046 60 36 60H24ZM143 44C143 42.8954 143.895 42 145 42H157C158.105 42 159 42.8954 159 44V62C159 63.1046 158.105 64 157 64H145C143.895 64 143 63.1046 143 62V44Z" fill="#273951"/><mask id="sidesCables01Mask0" mask-type="alpha" maskUnits="userSpaceOnUse" x="21" y="0" width="138" height="72"><path fill-rule="evenodd" clip-rule="evenodd" d="M145 0C143.895 0 143 0.89543 143 2V20C143 21.1046 143.895 22 145 22H157C158.105 22 159 21.1046 159 20V2C159 0.895431 158.105 0 157 0H145ZM23 27C21.8954 27 21 27.8954 21 29V47C21 48.1046 21.8954 49 23 49H35C36.1046 49 37 48.1046 37 47V29C37 27.8954 36.1046 27 35 27H23ZM24 60C22.8954 60 22 60.8954 22 62V70C22 71.1046 22.8954 72 24 72H36C37.1046 72 38 71.1046 38 70V62C38 60.8954 37.1046 60 36 60H24ZM143 44C143 42.8954 143.895 42 145 42H157C158.105 42 159 42.8954 159 44V62C159 63.1046 158.105 64 157 64H145C143.895 64 143 63.1046 143 62V44Z" fill="white"/></mask><g mask="url(#sidesCables01Mask0)"><rect width="180" height="76" fill="#FF7043"/></g></g><g transform="translate(41, 0)"><path fill-rule="evenodd" clip-rule="evenodd" d="M48 0C39.1634 0 32 7.16344 32 16V32C32 36.4183 35.5817 40 40 40H23C22.4477 40 22 40.4477 22 41V51C22 51.5523 22.4477 52 23 52H77C77.5523 52 78 51.5523 78 51V41C78 40.4477 77.5523 40 77 40H60C64.4183 40 68 36.4183 68 32V16C68 7.16344 60.8366 0 52 0H48Z" fill="#59C4FF"/><mask id="topBulb011Mask0" mask-type="alpha" maskUnits="userSpaceOnUse" x="22" y="0" width="56" height="52"><path fill-rule="evenodd" clip-rule="evenodd" d="M48 0C39.1634 0 32 7.16344 32 16V32C32 36.4183 35.5817 40 40 40H23C22.4477 40 22 40.4477 22 41V51C22 51.5523 22.4477 52 23 52H77C77.5523 52 78 51.5523 78 51V41C78 40.4477 77.5523 40 77 40H60C64.4183 40 68 36.4183 68 32V16C68 7.16344 60.8366 0 52 0H48Z" fill="white"/></mask><g mask="url(#topBulb011Mask0)"><rect width="100" height="52" fill="#FF7043"/><rect x="20" y="-3" width="60" height="43" fill="white" fill-opacity="0.4"/><path d="M49 3.5C53.9315 3.5 58.366 5.62814 61.4352 9.01616" stroke="white" stroke-width="2" stroke-linecap="round"/><path fill-rule="evenodd" clip-rule="evenodd" d="M49.8284 26L40.8284 17L38 19.8284L48 29.8284V40H52V29.9706L62.1421 19.8284L59.3137 17L50.3137 26H49.8284Z" fill="white" fill-opacity="0.8"/></g></g><g transform="translate(25, 44)"><path fill-rule="evenodd" clip-rule="evenodd" d="M0 31C0 31.0205 0.0141049 30.8164 0 30C0.183375 29.5235 0.402009 28.5029 1 27C1.82671 23.944 3.7804 20.4435 7 17C16.6944 6.60017 35.1724 0 65 0C94.8276 0 113.306 6.60036 123 17C126.22 20.4435 128.173 23.944 129 27C129.598 28.5029 129.817 29.5236 130 30C129.986 30.8164 130 31.0205 130 31V70C130 69.8964 129.972 70.5012 130 71C129.739 73.1171 129.471 75.0149 129 77C127.814 82.9912 125.606 88.911 122 94C112.283 110.337 94.2553 120 65 120C35.7448 120 17.7164 110.338 8 94C4.39414 88.9108 2.1865 82.9912 1 77C0.529043 75.0149 0.261028 73.1171 0 71C0.0282767 70.5466 6.49997e-05 69.6771 0 70V31Z" fill="#E1E6E8"/><mask id="faceRound02Mask0" mask-type="alpha" maskUnits="userSpaceOnUse" x="0" y="0" width="130" height="120"><path fill-rule="evenodd" clip-rule="evenodd" d="M0 31C0 31.0205 0.0141049 30.8164 0 30C0.183375 29.5235 0.402009 28.5029 1 27C1.82671 23.944 3.7804 20.4435 7 17C16.6944 6.60017 35.1724 0 65 0C94.8276 0 113.306 6.60036 123 17C126.22 20.4435 128.173 23.944 129 27C129.598 28.5029 129.817 29.5236 130 30C129.986 30.8164 130 31.0205 130 31V70C130 69.8964 129.972 70.5012 130 71C129.739 73.1171 129.471 75.0149 129 77C127.814 82.9912 125.606 88.911 122 94C112.283 110.337 94.2553 120 65 120C35.7448 120 17.7164 110.338 8 94C4.39414 88.9108 2.1865 82.9912 1 77C0.529043 75.0149 0.261028 73.1171 0 71C0.0282767 70.5466 6.49997e-05 69.6771 0 70V31Z" fill="white"/></mask><g mask="url(#faceRound02Mask0)"><rect x="-4" y="-2" width="138" height="124" fill="#F4511E"/><path fill-rule="evenodd" clip-rule="evenodd" d="M0.880859 128.092C5.24177 97.4016 13.9384 123.534 34.866 118.124C44.1119 115.734 36.6414 105.296 43.5373 100.772C49.3622 96.9503 57.3002 100.029 63.9726 97.5579C73.6018 93.9913 73.4753 86.7354 82.4474 85.651C90.9322 84.6255 99.8208 88.005 108.378 86.7354C124.529 84.3395 117.907 52.7111 130.018 47.1252C142.129 41.5393 162.068 51.1858 164.678 67C167.222 82.4167 150.22 139.78 150.22 139.78H0.880859" fill="black" fill-opacity="0.2"/><path fill-rule="evenodd" clip-rule="evenodd" d="M45.9268 128C83.6043 128 87.5268 113.25 106.065 106.493C124.603 99.7354 140.846 117.214 147.078 100.233C153.31 83.2528 153.276 136.181 153.276 136.181H45.9268L45.9268 128Z" fill="black" fill-opacity="0.1"/><path fill-rule="evenodd" clip-rule="evenodd" d="M7.99964 10.8673C19.7328 9.74652 15.9616 22.8061 20.597 22.8061C22.4461 22.8061 24.6249 14.3489 27.9829 14.3489C30.4376 14.3489 29.9749 19.8425 35.3046 19.2617C40.3073 18.7166 39.375 15.2687 41.9023 15.2687C47.345 15.2687 45.2869 35.4636 49.6437 35.4636C54.0005 35.4636 55.3734 20.668 57.2911 14.8164C59.7177 7.4119 74.2632 3.26163 63.8919 0.320129H7.71289" fill="black" fill-opacity="0.4"/></g></g><g transform="translate(52, 124)"><rect x="4" y="5" width="68" height="22" rx="5" fill="black" fill-opacity="0.2"/><rect x="8" y="9" width="60" height="14" rx="2" fill="white"/><rect x="18" y="9" width="4" height="14" fill="black" fill-opacity="0.1"/><rect x="42" y="9" width="4" height="14" fill="black" fill-opacity="0.1"/><rect x="30" y="9" width="4" height="14" fill="black" fill-opacity="0.1"/><rect x="54" y="9" width="4" height="14" fill="black" fill-opacity="0.1"/></g><g transform="translate(38, 76)"><path fill-rule="evenodd" clip-rule="evenodd" d="M28 44C38.3707 44 46.8978 36.1066 47.9012 26H89.416C90.1876 27.7659 91.9497 29 94 29C96.7614 29 99 26.7614 99 24C99 21.2386 96.7614 19 94 19C91.9497 19 90.1876 20.2341 89.416 22H47.9012C46.8978 11.8934 38.3707 4 28 4C16.9543 4 8 12.9543 8 24C8 35.0457 16.9543 44 28 44Z" fill="black" fill-opacity="0.2"/><path fill-rule="evenodd" clip-rule="evenodd" d="M94 26C95.1046 26 96 25.1046 96 24C96 22.8954 95.1046 22 94 22C92.8954 22 92 22.8954 92 24C92 25.1046 92.8954 26 94 26Z" fill="white"/><path fill-rule="evenodd" clip-rule="evenodd" d="M28 40C36.8366 40 44 32.8366 44 24C44 15.1634 36.8366 8 28 8C19.1634 8 12 15.1634 12 24C12 32.8366 19.1634 40 28 40Z" fill="black" fill-opacity="0.6"/><path fill-rule="evenodd" clip-rule="evenodd" d="M34 19C35.6569 19 37 17.6569 37 16C37 14.3431 35.6569 13 34 13C32.3431 13 31 14.3431 31 16C31 17.6569 32.3431 19 34 19Z" fill="white"/></g></svg>