<svg viewBox="0 0 180 180" xmlns="http://www.w3.org/2000/svg" fill="none"><g transform="translate(0, 66)"><path fill-rule="evenodd" clip-rule="evenodd" d="M12 39C12 50.9264 17.9543 61 28 61C38.0457 61 48 50.9264 48 39C48 26.0736 38.0457 16 28 16C17.9543 16 12 26.0736 12 39ZM168 39C168 50.9264 162.046 61 152 61C141.954 61 132 50.9264 132 39C132 26.0736 141.954 16 152 16C162.046 16 168 26.0736 168 39Z" fill="#E1E6E8"/><mask id="sidesRoundMask0" mask-type="alpha" maskUnits="userSpaceOnUse" x="12" y="16" width="156" height="45"><path fill-rule="evenodd" clip-rule="evenodd" d="M12 39C12 50.9264 17.9543 61 28 61C38.0457 61 48 50.9264 48 39C48 26.0736 38.0457 16 28 16C17.9543 16 12 26.0736 12 39ZM168 39C168 50.9264 162.046 61 152 61C141.954 61 132 50.9264 132 39C132 26.0736 141.954 16 152 16C162.046 16 168 26.0736 168 39Z" fill="white"/></mask><g mask="url(#sidesRoundMask0)"><rect width="180" height="76" fill="#FFA726"/><rect x="20" width="140" height="76" fill="black" fill-opacity="0.2"/></g></g><g transform="translate(41, 0)"><path fill-rule="evenodd" clip-rule="evenodd" d="M50 8L82 52H18L50 8Z" fill="#E1E6E8"/><mask id="topPyramidMask0" mask-type="alpha" maskUnits="userSpaceOnUse" x="18" y="8" width="64" height="44"><path fill-rule="evenodd" clip-rule="evenodd" d="M50 8L82 52H18L50 8Z" fill="white"/></mask><g mask="url(#topPyramidMask0)"><rect width="100" height="52" fill="#FFA726"/><rect x="50" y="4" width="30" height="48" fill="white" fill-opacity="0.8"/></g></g><g transform="translate(25, 44)"><path fill-rule="evenodd" clip-rule="evenodd" d="M0 102V68.8517C0 64.3169 0.77112 59.8152 2.28039 55.5389L19.7614 12.0092C22.3014 4.81263 29.1036 0 36.7353 0L93.2647 0C100.896 0 107.699 4.81263 110.239 12.0092L127.72 55.5389C129.229 59.8152 130 64.3169 130 68.8517V102C130 111.941 121.941 120 112 120H18C8.05887 120 0 111.941 0 102Z" fill="#0076DE"/><mask id="faceSquareMask0" mask-type="alpha" maskUnits="userSpaceOnUse" x="0" y="0" width="130" height="120"><path fill-rule="evenodd" clip-rule="evenodd" d="M0 102V68.8517C0 64.3169 0.77112 59.8152 2.28039 55.5389L19.7614 12.0092C22.3014 4.81263 29.1036 0 36.7353 0L93.2647 0C100.896 0 107.699 4.81263 110.239 12.0092L127.72 55.5389C129.229 59.8152 130 64.3169 130 68.8517V102C130 111.941 121.941 120 112 120H18C8.05887 120 0 111.941 0 102Z" fill="white"/></mask><g mask="url(#faceSquareMask0)"><rect x="-2" y="-2" width="134" height="124" fill="#FB8C00"/>
            undefined
        </g></g><g transform="translate(52, 124)"><path fill-rule="evenodd" clip-rule="evenodd" d="M18 10.2222C18 21.7845 24.4741 28 38 28C51.5182 28 58 21.6615 58 10.2222C58 9.49622 57.1739 8 55 8C39.2707 8 29.1917 8 21 8C18.949 8 18 9.38479 18 10.2222Z" fill="black" fill-opacity="0.8"/><mask id="mouthSmilie02Mask0" mask-type="alpha" maskUnits="userSpaceOnUse" x="18" y="8" width="40" height="20"><path fill-rule="evenodd" clip-rule="evenodd" d="M18 10.2222C18 21.7845 24.4741 28 38 28C51.5182 28 58 21.6615 58 10.2222C58 9.49622 57.1739 8 55 8C39.2707 8 29.1917 8 21 8C18.949 8 18 9.38479 18 10.2222Z" fill="white"/></mask><g mask="url(#mouthSmilie02Mask0)"><rect x="30" y="2" width="16" height="14" rx="2" fill="white"/></g></g><g transform="translate(38, 76)"><rect x="8" y="10" width="88" height="36" rx="4" fill="black" fill-opacity="0.8"/><rect x="28" y="21" width="10" height="17" rx="2" fill="#5EF2B8"/><rect x="66" y="21" width="10" height="17" rx="2" fill="#5EF2B8"/><path fill-rule="evenodd" clip-rule="evenodd" d="M83 10H88L76 46H71L83 10Z" fill="white" fill-opacity="0.4"/></g></svg>